<?xml version="1.0" encoding="UTF-8"?>
<!DOCTYPE svg PUBLIC "-//W3C//DTD SVG 1.1//EN" "http://www.w3.org/Graphics/SVG/1.1/DTD/svg11.dtd">
<svg xmlns="http://www.w3.org/2000/svg" version="1.1" width="512px" height="512px" style="shape-rendering:geometricPrecision; text-rendering:geometricPrecision; image-rendering:optimizeQuality; fill-rule:evenodd; clip-rule:evenodd" xmlns:xlink="http://www.w3.org/1999/xlink">
<g><path style="opacity:0.975" fill="#757b7e" d="M 186.5,69.5 C 232.5,69.5 278.5,69.5 324.5,69.5C 324.5,148.167 324.5,226.833 324.5,305.5C 278.5,305.5 232.5,305.5 186.5,305.5C 186.5,226.833 186.5,148.167 186.5,69.5 Z"/></g>
<g><path style="opacity:0.239" fill="#62676d" d="M 186.5,69.5 C 186.5,148.167 186.5,226.833 186.5,305.5C 232.5,305.5 278.5,305.5 324.5,305.5C 278.336,306.499 232.003,306.832 185.5,306.5C 185.167,227.332 185.501,148.332 186.5,69.5 Z"/></g>
<g><path style="opacity:1" fill="#e5e6e7" d="M 241.5,78.5 C 243.288,78.2148 244.955,78.5481 246.5,79.5C 243.621,80.8807 241.121,82.8807 239,85.5C 238.063,88.656 236.563,91.4894 234.5,94C 229.68,96.8272 226.68,95.6605 225.5,90.5C 228.609,90.3447 231.609,89.6781 234.5,88.5C 236.351,84.7877 238.684,81.4543 241.5,78.5 Z"/></g>
<g><path style="opacity:1" fill="#e1e2e3" d="M 263.5,78.5 C 269.585,79.2452 273.585,82.5785 275.5,88.5C 278.012,89.7946 280.679,90.4613 283.5,90.5C 283.714,92.1439 283.38,93.6439 282.5,95C 279.697,95.755 277.03,95.4217 274.5,94C 272.547,91.0474 271.047,87.8807 270,84.5C 267.591,82.5833 265.424,80.5833 263.5,78.5 Z"/></g>
<g><path style="opacity:1" fill="#e1e3e3" d="M 298.5,95.5 C 302.533,97.0044 304.7,100.004 305,104.5C 305.828,109.202 305.662,113.869 304.5,118.5C 303.833,118.167 303.167,117.833 302.5,117.5C 301.671,112.198 301.171,106.864 301,101.5C 299.441,99.7834 298.608,97.7834 298.5,95.5 Z"/></g>
<g><path style="opacity:1" fill="#e2e3e4" d="M 209.5,95.5 C 210.497,95.4701 211.164,95.9701 211.5,97C 210.683,98.49 209.85,99.99 209,101.5C 208.829,106.864 208.329,112.198 207.5,117.5C 206.833,117.833 206.167,118.167 205.5,118.5C 204.338,113.533 204.171,108.533 205,103.5C 205.86,100.367 207.36,97.7005 209.5,95.5 Z"/></g>
<g><path style="opacity:1" fill="#eeefef" d="M 246.5,83.5 C 252.593,83.1392 258.593,83.6392 264.5,85C 268.247,86.9872 270.081,90.1538 270,94.5C 272.167,95.3333 273.667,96.8333 274.5,99C 281.203,98.257 287.87,97.5903 294.5,97C 295.46,98.4194 296.293,99.9194 297,101.5C 297.833,107.5 298.667,113.5 299.5,119.5C 303.173,121.443 306.506,123.943 309.5,127C 313.897,140.678 309.897,150.844 297.5,157.5C 293.541,158.66 289.541,158.827 285.5,158C 284.056,156.874 283.39,155.374 283.5,153.5C 284.376,151.177 284.876,148.843 285,146.5C 280.32,144.896 278.153,146.729 278.5,152C 278.904,155.087 280.237,157.754 282.5,160C 297.367,164.475 307.2,159.308 312,144.5C 312.943,139.191 313.776,133.858 314.5,128.5C 320.047,147.437 313.713,160.603 295.5,168C 291.5,168.833 287.5,169.667 283.5,170.5C 282.553,172.059 281.887,173.726 281.5,175.5C 283.47,178.259 285.637,180.926 288,183.5C 289.262,188.307 287.762,191.974 283.5,194.5C 279.568,196.033 275.568,197.366 271.5,198.5C 272.753,200.726 274.587,202.059 277,202.5C 286.998,200.194 291.998,193.861 292,183.5C 294.048,185.873 294.881,188.706 294.5,192C 294.126,196.072 293.292,199.905 292,203.5C 296.99,197.782 298.823,191.115 297.5,183.5C 299.167,183.5 300.833,183.5 302.5,183.5C 302.13,193.985 298.13,202.652 290.5,209.5C 287.164,210.24 283.83,210.906 280.5,211.5C 278.914,213.173 278.247,215.173 278.5,217.5C 282.877,217.423 287.21,216.923 291.5,216C 293.019,214.649 294.352,213.149 295.5,211.5C 296.743,215.147 295.41,217.647 291.5,219C 287.486,219.837 283.486,220.671 279.5,221.5C 279.238,222.978 279.571,224.311 280.5,225.5C 284.516,223.632 287.516,224.632 289.5,228.5C 291.045,229.452 292.712,229.785 294.5,229.5C 294.5,231.167 294.5,232.833 294.5,234.5C 292.304,234.565 290.304,235.232 288.5,236.5C 294.002,240.754 299.002,240.087 303.5,234.5C 304.741,239.47 302.741,242.637 297.5,244C 293.523,244.531 289.69,244.031 286,242.5C 286.616,250.946 285.616,259.279 283,267.5C 282.667,258.5 282.333,249.5 282,240.5C 280.471,239.271 279.304,237.771 278.5,236C 277.668,235.312 277.002,235.479 276.5,236.5C 278.766,238.87 279.766,241.703 279.5,245C 276.996,253.022 276.996,261.022 279.5,269C 281.006,271.206 283.006,272.706 285.5,273.5C 290.547,271.386 294.38,272.719 297,277.5C 297.667,280.833 297.667,284.167 297,287.5C 289.545,294.993 281.045,296.66 271.5,292.5C 269.111,294.407 266.278,295.407 263,295.5C 255.863,295.025 248.696,294.858 241.5,295C 241.002,293.842 240.169,293.009 239,292.5C 228.084,297.528 219.084,295.194 212,285.5C 210.969,280.063 212.802,275.896 217.5,273C 220.79,273.369 224.123,273.369 227.5,273C 231.337,269.077 233.004,264.244 232.5,258.5C 232.149,253.949 231.482,249.449 230.5,245C 230.642,241.985 231.142,239.151 232,236.5C 229.386,238.056 228.053,240.39 228,243.5C 227.264,251.535 227.431,259.535 228.5,267.5C 227.5,267.5 226.5,267.5 225.5,267.5C 224.833,259.5 224.167,251.5 223.5,243.5C 218.821,243.666 214.155,243.499 209.5,243C 206.569,240.702 205.569,237.869 206.5,234.5C 210.704,240.029 215.704,240.863 221.5,237C 216.684,236.689 214.684,234.189 215.5,229.5C 217.167,229.5 218.833,229.5 220.5,229.5C 220.33,228.178 220.663,227.011 221.5,226C 224.482,225.502 227.482,225.335 230.5,225.5C 230.67,224.178 230.337,223.011 229.5,222C 224.752,220.918 220.085,219.585 215.5,218C 213.622,216.007 213.288,213.841 214.5,211.5C 218.862,216.69 224.528,219.023 231.5,218.5C 231.756,216.208 231.423,214.041 230.5,212C 219.523,211.693 212.69,206.193 210,195.5C 208.972,191.527 208.139,187.527 207.5,183.5C 209.167,183.5 210.833,183.5 212.5,183.5C 211.6,191.547 213.767,198.547 219,204.5C 217.036,200.746 215.869,196.579 215.5,192C 216.544,181.259 217.711,181.092 219,191.5C 221.624,197.793 226.291,201.46 233,202.5C 235.475,202.016 237.308,200.683 238.5,198.5C 234.059,197.746 229.725,196.579 225.5,195C 222.64,191.319 221.807,187.152 223,182.5C 224,180.167 225.667,178.5 228,177.5C 228.667,175.833 228.667,174.167 228,172.5C 222.208,170.905 216.375,169.071 210.5,167C 194.955,157.693 190.122,144.526 196,127.5C 195.916,135.743 197.249,143.743 200,151.5C 207.03,161.092 216.197,163.925 227.5,160C 231.371,156.561 232.371,152.394 230.5,147.5C 228.827,145.914 226.827,145.247 224.5,145.5C 224.678,148.322 225.345,150.989 226.5,153.5C 226.594,155.912 225.594,157.745 223.5,159C 210.164,159.662 201.997,153.495 199,140.5C 196.623,130.252 200.289,123.252 210,119.5C 211.232,114.279 211.899,108.946 212,103.5C 212.957,100.978 214.457,98.8114 216.5,97C 222.246,98.6183 228.246,99.2849 234.5,99C 238.373,96.4795 240.54,92.9795 241,88.5C 242.73,86.5981 244.563,84.9314 246.5,83.5 Z"/></g>
<g><path style="opacity:1" fill="#73797c" d="M 234.5,169.5 C 245.267,171.941 249.6,178.608 247.5,189.5C 245.844,187.54 244.177,185.54 242.5,183.5C 238.607,182.01 235.107,180.01 232,177.5C 230.837,174.029 231.67,171.362 234.5,169.5 Z"/></g>
<g><path style="opacity:1" fill="#72787c" d="M 270.5,169.5 C 277,168.499 279.5,171.165 278,177.5C 273.964,179.291 270.131,181.458 266.5,184C 265.139,185.584 264.472,187.418 264.5,189.5C 263.5,189.5 262.5,189.5 261.5,189.5C 261.459,184.239 262.626,179.239 265,174.5C 267.328,173.336 269.162,171.67 270.5,169.5 Z"/></g>
<g><path style="opacity:1" fill="#7a8083" d="M 254.5,164.5 C 255.712,165.23 256.712,166.23 257.5,167.5C 259.427,175.901 258.594,183.901 255,191.5C 250.666,182.43 250.5,173.43 254.5,164.5 Z"/></g>
<g><path style="opacity:1" fill="#73797c" d="M 247.5,152.5 C 252.59,152.576 257.59,152.91 262.5,153.5C 262.833,154.5 263.167,155.5 263.5,156.5C 262.796,158.535 262.129,160.535 261.5,162.5C 262.5,162.5 263.5,162.5 264.5,162.5C 264.299,158.64 265.965,156.806 269.5,157C 270.602,159.401 270.769,161.901 270,164.5C 266.604,167.232 263.937,170.565 262,174.5C 262.3,168.434 259.967,163.767 255,160.5C 250.217,163.798 247.884,168.464 248,174.5C 246.956,173.377 246.29,172.044 246,170.5C 240.882,167.514 238.549,163.18 239,157.5C 239.725,156.941 240.558,156.608 241.5,156.5C 243.868,157.872 245.534,159.872 246.5,162.5C 246.412,159.195 246.745,155.862 247.5,152.5 Z"/></g>
<g><path style="opacity:1" fill="#747a7d" d="M 214.5,116.5 C 216.199,116.34 217.866,116.506 219.5,117C 222.037,119.872 224.87,122.372 228,124.5C 230.333,127.5 232.667,130.5 235,133.5C 236.832,136.328 237.832,139.328 238,142.5C 236.471,141.271 235.304,139.771 234.5,138C 227.405,133.407 220.738,128.24 214.5,122.5C 213.181,120.468 213.181,118.468 214.5,116.5 Z"/></g>
<g><path style="opacity:1" fill="#757b7e" d="M 297.5,129.5 C 305.285,129.936 307.618,133.936 304.5,141.5C 302.434,147.732 298.434,152.232 292.5,155C 289.763,156.08 288.096,155.246 287.5,152.5C 292.277,144.068 289.611,140.568 279.5,142C 278.667,142.833 277.833,143.667 277,144.5C 276.502,147.482 276.335,150.482 276.5,153.5C 275.5,153.5 274.5,153.5 273.5,153.5C 271.972,146.189 274.638,141.022 281.5,138C 284.956,137.82 288.289,137.153 291.5,136C 293.293,133.612 295.293,131.446 297.5,129.5 Z"/></g>
<g><path style="opacity:1" fill="#747a7d" d="M 206.5,129.5 C 211.381,128.877 215.048,130.71 217.5,135C 223.552,136.277 229.052,138.777 234,142.5C 235.927,146.064 236.427,149.731 235.5,153.5C 234.965,145.121 230.632,141.288 222.5,142C 221.667,142.833 220.833,143.667 220,144.5C 220.959,148.035 221.792,151.701 222.5,155.5C 216.001,155.164 211.167,152.164 208,146.5C 204.112,141.078 203.612,135.412 206.5,129.5 Z"/></g>
<g><path style="opacity:1" fill="#73797c" d="M 288.5,102.5 C 292.648,102.453 294.148,104.453 293,108.5C 284.249,115.249 276.916,123.249 271,132.5C 267.972,138.819 266.805,145.486 267.5,152.5C 266.5,152.5 265.5,152.5 264.5,152.5C 264.829,136.34 269.996,122.006 280,109.5C 282.588,106.8 285.421,104.467 288.5,102.5 Z"/></g>
<g><path style="opacity:1" fill="#767c7f" d="M 217.5,103.5 C 220.794,103.259 223.794,104.092 226.5,106C 235.212,115.278 241.212,126.112 244.5,138.5C 245.492,142.783 245.826,147.116 245.5,151.5C 244.5,151.5 243.5,151.5 242.5,151.5C 242.665,147.818 242.499,144.152 242,140.5C 236.602,127.374 228.102,116.708 216.5,108.5C 215.316,106.533 215.649,104.866 217.5,103.5 Z"/></g>
<g><path style="opacity:1" fill="#747a7d" d="M 289.5,116.5 C 295.113,115.079 297.28,117.079 296,122.5C 287.701,128.138 280.034,134.472 273,141.5C 272.82,138.691 273.487,136.024 275,133.5C 279.851,127.762 284.685,122.095 289.5,116.5 Z"/></g>
<g><path style="opacity:1" fill="#747a7d" d="M 264.5,100.5 C 268.962,99.8035 271.629,101.637 272.5,106C 266.124,118.746 262.457,132.246 261.5,146.5C 260.178,146.67 259.011,146.337 258,145.5C 257.492,133.773 258.158,122.106 260,110.5C 261.111,106.933 262.611,103.6 264.5,100.5 Z"/></g>
<g><path style="opacity:1" fill="#757b7e" d="M 240.5,100.5 C 241.873,100.343 243.207,100.51 244.5,101C 248.684,104.865 250.851,109.699 251,115.5C 252.462,125.46 252.795,135.46 252,145.5C 250.644,146.38 249.144,146.714 247.5,146.5C 247.344,131.873 244.011,118.039 237.5,105C 237.557,102.791 238.557,101.291 240.5,100.5 Z"/></g>
<g><path style="opacity:1" fill="#747a7d" d="M 228.5,183.5 C 234.319,182.307 238.986,183.974 242.5,188.5C 239.667,188.582 236.667,188.748 233.5,189C 230.614,193.546 227.947,193.379 225.5,188.5C 226.092,186.577 227.092,184.911 228.5,183.5 Z"/></g>
<g><path style="opacity:1" fill="#757b7e" d="M 271.5,183.5 C 275.226,183.177 278.893,183.511 282.5,184.5C 285.577,188.192 284.911,190.859 280.5,192.5C 278.444,191.952 276.777,190.786 275.5,189C 273.1,188.814 270.766,188.314 268.5,187.5C 269.91,186.431 270.91,185.097 271.5,183.5 Z"/></g>
<g><path style="opacity:1" fill="#ebecec" d="M 201.5,197.5 C 204.075,201.062 207.409,204.062 211.5,206.5C 212.386,207.325 212.719,208.325 212.5,209.5C 203.602,210.056 200.936,214.39 204.5,222.5C 206.167,222.5 207.833,222.5 209.5,222.5C 209.264,224.973 207.931,226.64 205.5,227.5C 199.925,223.949 198.092,218.949 200,212.5C 201.515,210.323 203.015,208.156 204.5,206C 202.809,203.429 201.809,200.596 201.5,197.5 Z"/></g>
<g><path style="opacity:1" fill="#ebebec" d="M 306.5,197.5 C 307.497,197.47 308.164,197.97 308.5,199C 305.529,203.874 306.029,208.374 310,212.5C 310.667,215.5 310.667,218.5 310,221.5C 308.325,223.532 306.658,225.532 305,227.5C 302.352,226.781 300.852,225.114 300.5,222.5C 306.156,222.133 307.989,219.133 306,213.5C 304.106,210.156 301.273,208.822 297.5,209.5C 297.351,208.448 297.517,207.448 298,206.5C 302.387,204.947 305.22,201.947 306.5,197.5 Z"/></g>
<g><path style="opacity:1" fill="#747b7e" d="M 249.5,197.5 C 261.419,195.375 269.919,199.708 275,210.5C 276.223,216.379 275.389,221.879 272.5,227C 271.668,227.688 271.002,227.521 270.5,226.5C 276.962,210.425 271.462,201.425 254,199.5C 237.677,202.324 232.843,211.324 239.5,226.5C 238.833,227.833 238.167,227.833 237.5,226.5C 232.529,217.125 233.863,208.792 241.5,201.5C 243.84,199.321 246.507,197.987 249.5,197.5 Z"/></g>
<g><path style="opacity:1" fill="#6c7275" d="M 249.5,201.5 C 253.182,201.335 256.848,201.501 260.5,202C 263.312,203.977 265.978,206.144 268.5,208.5C 271.322,214.136 270.988,219.636 267.5,225C 263.74,225.193 263.574,224.359 267,222.5C 269.058,208.785 263.225,202.952 249.5,205C 243.092,208.323 240.925,213.489 243,220.5C 243.785,222.286 244.951,223.786 246.5,225C 244.888,225.72 243.388,225.554 242,224.5C 239.033,219.771 238.7,214.771 241,209.5C 243.242,206.005 246.076,203.338 249.5,201.5 Z"/></g>
<g><path style="opacity:1" fill="#747b7e" d="M 251.5,208.5 C 259.879,207.715 263.712,211.381 263,219.5C 260.103,224.155 255.937,225.655 250.5,224C 244.974,218.357 245.308,213.19 251.5,208.5 Z"/></g>
<g><path style="opacity:1" fill="#72787c" d="M 246.5,228.5 C 248.467,228.261 250.301,228.594 252,229.5C 252.645,236.076 252.145,242.576 250.5,249C 253.4,257.627 256.4,257.627 259.5,249C 257.577,242.211 257.244,235.377 258.5,228.5C 260.527,228.338 262.527,228.505 264.5,229C 259.931,231.541 258.431,235.375 260,240.5C 261.74,245.062 264.407,249.062 268,252.5C 266.5,248.925 264.834,245.258 263,241.5C 262.012,233.048 265.346,230.715 273,234.5C 275.021,237.64 275.855,241.14 275.5,245C 275.51,250.303 274.676,255.47 273,260.5C 270.156,264.738 268.156,264.404 267,259.5C 264.916,256.967 262.916,256.967 261,259.5C 260.506,261.134 260.34,262.801 260.5,264.5C 258.43,264.551 256.597,263.885 255,262.5C 253.433,263.856 251.6,264.523 249.5,264.5C 249.662,262.473 249.495,260.473 249,258.5C 247.333,257.167 245.667,257.167 244,258.5C 243.293,260.081 242.46,261.581 241.5,263C 240.833,263.667 240.167,263.667 239.5,263C 234.834,255.144 233.334,246.644 235,237.5C 238.425,232.133 242.425,231.466 247,235.5C 247.882,240.519 246.549,244.853 243,248.5C 242.333,249.5 242.333,250.5 243,251.5C 251.157,244.563 252.324,236.897 246.5,228.5 Z"/></g>
<g><path style="opacity:1" fill="#eff0f0" d="M 265.5,235.5 C 273.326,236.322 275.659,240.489 272.5,248C 266.115,246.112 263.781,241.946 265.5,235.5 Z"/></g>
<g><path style="opacity:1" fill="#edeeee" d="M 239.5,235.5 C 245.367,235.206 247.033,237.872 244.5,243.5C 237.802,249.345 235.302,247.678 237,238.5C 238.045,237.627 238.878,236.627 239.5,235.5 Z"/></g>
<g><path style="opacity:1" fill="#747b7e" d="M 235.5,264.5 C 237.156,267.155 238.489,270.155 239.5,273.5C 240.298,271.922 240.798,270.256 241,268.5C 242.011,267.663 243.178,267.33 244.5,267.5C 244.665,270.518 244.498,273.518 244,276.5C 241.783,280.094 240.283,283.927 239.5,288C 235.428,288.956 231.595,288.456 228,286.5C 227.333,285.5 227.333,284.5 228,283.5C 231.094,283.207 232.594,281.541 232.5,278.5C 231.022,278.762 229.689,278.429 228.5,277.5C 230.435,275.273 232.268,272.939 234,270.5C 235.128,268.655 235.628,266.655 235.5,264.5 Z"/></g>
<g><path style="opacity:1" fill="#767c7f" d="M 273.5,264.5 C 275.19,269.56 278.19,273.893 282.5,277.5C 280.955,278.452 279.288,278.785 277.5,278.5C 277.406,281.541 278.906,283.207 282,283.5C 282.445,285.594 281.612,287.094 279.5,288C 276.518,288.498 273.518,288.665 270.5,288.5C 270.647,284.464 269.147,281.131 266,278.5C 264.632,275.262 264.299,271.928 265,268.5C 266.333,267.167 267.667,267.167 269,268.5C 269.219,269.938 269.719,271.271 270.5,272.5C 272.107,270.083 273.107,267.416 273.5,264.5 Z"/></g>
<g><path style="opacity:1" fill="#73797c" d="M 250.5,268.5 C 251.649,268.791 252.316,269.624 252.5,271C 251.196,276.171 251.196,281.338 252.5,286.5C 251.699,289.637 249.699,291.304 246.5,291.5C 246.604,288.91 245.937,286.577 244.5,284.5C 245.341,281.128 246.841,278.128 249,275.5C 249.977,273.26 250.477,270.927 250.5,268.5 Z"/></g>
<g><path style="opacity:1" fill="#71787b" d="M 257.5,268.5 C 258.376,268.369 259.043,268.702 259.5,269.5C 260.523,273.077 262.023,276.411 264,279.5C 264.497,283.524 264.331,287.524 263.5,291.5C 259.94,292.109 257.94,290.609 257.5,287C 258.707,280.842 258.707,274.676 257.5,268.5 Z"/></g>
<g><path style="opacity:1" fill="#72787b" d="M 289.5,275.5 C 293.715,277.439 295.215,280.772 294,285.5C 290.429,290.368 285.596,292.702 279.5,292.5C 279.5,291.5 279.5,290.5 279.5,289.5C 283.791,288.764 286.958,286.431 289,282.5C 289.497,280.19 289.663,277.857 289.5,275.5 Z"/></g>
<g><path style="opacity:1" fill="#6f7578" d="M 218.5,275.5 C 220.183,278.538 221.683,281.871 223,285.5C 225.543,287.411 228.043,289.411 230.5,291.5C 224.478,292.702 219.645,290.702 216,285.5C 215.024,281.673 215.857,278.34 218.5,275.5 Z"/></g>
<g><path style="opacity:0.999" fill="#aa1f37" d="M 185.5,315.5 C 231.833,315.5 278.167,315.5 324.5,315.5C 324.5,341.5 324.5,367.5 324.5,393.5C 278.167,393.5 231.833,393.5 185.5,393.5C 185.5,367.5 185.5,341.5 185.5,315.5 Z"/></g>
<g><path style="opacity:1" fill="#f7ebed" d="M 208.5,338.5 C 210.167,338.5 211.833,338.5 213.5,338.5C 213.334,346.174 213.5,353.841 214,361.5C 215.692,365.379 218.525,366.379 222.5,364.5C 223,363.5 223.5,362.5 224,361.5C 224.5,353.841 224.666,346.174 224.5,338.5C 226.5,338.5 228.5,338.5 230.5,338.5C 230.666,346.174 230.5,353.841 230,361.5C 226.912,369.984 221.079,372.484 212.5,369C 210.859,367.871 209.859,366.371 209.5,364.5C 208.589,355.874 208.255,347.208 208.5,338.5 Z"/></g>
<g><path style="opacity:1" fill="#fbf6f6" d="M 251.5,343.5 C 247.833,343.5 244.167,343.5 240.5,343.5C 240.5,346.167 240.5,348.833 240.5,351.5C 244.167,351.5 247.833,351.5 251.5,351.5C 251.5,353.167 251.5,354.833 251.5,356.5C 247.833,356.5 244.167,356.5 240.5,356.5C 240.5,360.833 240.5,365.167 240.5,369.5C 239.167,369.5 237.833,369.5 236.5,369.5C 236.5,359.5 236.5,349.5 236.5,339.5C 241.5,339.5 246.5,339.5 251.5,339.5C 251.5,340.833 251.5,342.167 251.5,343.5 Z"/></g>
<g><path style="opacity:1" fill="#f7eaec" d="M 277.5,344.5 C 278.4,349.772 278.733,355.105 278.5,360.5C 276.141,369.149 270.475,372.315 261.5,370C 259.291,368.127 257.458,365.96 256,363.5C 255.333,357.5 255.333,351.5 256,345.5C 260.091,337.121 266.258,335.288 274.5,340C 276.141,341.129 277.141,342.629 277.5,344.5 Z"/></g>
<g><path style="opacity:1" fill="#faf4f5" d="M 295.5,339.5 C 300.328,339.763 302.328,342.43 301.5,347.5C 302.253,352.648 300.253,355.982 295.5,357.5C 293.167,357.5 290.833,357.5 288.5,357.5C 288.5,361.5 288.5,365.5 288.5,369.5C 287.167,369.5 285.833,369.5 284.5,369.5C 284.5,359.5 284.5,349.5 284.5,339.5C 288.167,339.5 291.833,339.5 295.5,339.5 Z"/></g>
<g><path style="opacity:1" fill="#c46e7b" d="M 251.5,338.5 C 246.167,338.5 240.833,338.5 235.5,338.5C 235.5,348.833 235.5,359.167 235.5,369.5C 234.506,359.013 234.172,348.346 234.5,337.5C 240.358,337.178 246.025,337.511 251.5,338.5 Z"/></g>
<g><path style="opacity:1" fill="#e6bec4" d="M 251.5,338.5 C 252.451,339.919 252.784,341.585 252.5,343.5C 252.167,343.5 251.833,343.5 251.5,343.5C 251.5,342.167 251.5,340.833 251.5,339.5C 246.5,339.5 241.5,339.5 236.5,339.5C 236.5,349.5 236.5,359.5 236.5,369.5C 237.833,369.5 239.167,369.5 240.5,369.5C 238.833,370.833 237.167,370.833 235.5,369.5C 235.5,359.167 235.5,348.833 235.5,338.5C 240.833,338.5 246.167,338.5 251.5,338.5 Z"/></g>
<g><path style="opacity:1" fill="#d1929b" d="M 208.5,338.5 C 208.255,347.208 208.589,355.874 209.5,364.5C 208.883,364.389 208.383,364.056 208,363.5C 207.177,354.99 207.343,346.656 208.5,338.5 Z"/></g>
<g><path style="opacity:1" fill="#e4b9c0" d="M 295.5,339.5 C 291.833,339.5 288.167,339.5 284.5,339.5C 284.5,349.5 284.5,359.5 284.5,369.5C 285.833,369.5 287.167,369.5 288.5,369.5C 287.081,370.451 285.415,370.784 283.5,370.5C 283.5,359.833 283.5,349.167 283.5,338.5C 287.702,338.183 291.702,338.517 295.5,339.5 Z"/></g>
<g><path style="opacity:1" fill="#ba4a59" d="M 251.5,343.5 C 251.833,343.5 252.167,343.5 252.5,343.5C 252.808,347.958 252.808,352.625 252.5,357.5C 248.833,357.5 245.167,357.5 241.5,357.5C 241.817,361.702 241.483,365.702 240.5,369.5C 240.5,365.167 240.5,360.833 240.5,356.5C 244.167,356.5 247.833,356.5 251.5,356.5C 251.5,354.833 251.5,353.167 251.5,351.5C 247.833,351.5 244.167,351.5 240.5,351.5C 240.5,348.833 240.5,346.167 240.5,343.5C 244.167,343.5 247.833,343.5 251.5,343.5 Z"/></g>
<g><path style="opacity:1" fill="#a81830" d="M 241.5,344.5 C 244.833,344.5 248.167,344.5 251.5,344.5C 251.5,346.5 251.5,348.5 251.5,350.5C 248.167,350.5 244.833,350.5 241.5,350.5C 241.5,348.5 241.5,346.5 241.5,344.5 Z"/></g>
<g><path style="opacity:1" fill="#aa2035" d="M 264.5,342.5 C 269.076,341.948 271.909,343.948 273,348.5C 274.249,354.251 273.416,359.584 270.5,364.5C 265.972,366.617 263.138,365.283 262,360.5C 261.333,355.5 261.333,350.5 262,345.5C 263.045,344.627 263.878,343.627 264.5,342.5 Z"/></g>
<g><path style="opacity:1" fill="#ad2d38" d="M 289.5,343.5 C 293.136,343.048 295.47,344.548 296.5,348C 295.859,351.922 293.525,353.422 289.5,352.5C 289.5,349.5 289.5,346.5 289.5,343.5 Z"/></g>
<g><path style="opacity:1" fill="#d99ca4" d="M 277.5,344.5 C 278.117,344.611 278.617,344.944 279,345.5C 279.816,350.684 279.65,355.684 278.5,360.5C 278.733,355.105 278.4,349.772 277.5,344.5 Z"/></g>
<g><path style="opacity:1" fill="#d49da5" d="M 295.5,357.5 C 293.735,358.461 291.735,358.795 289.5,358.5C 289.815,362.371 289.482,366.038 288.5,369.5C 288.5,365.5 288.5,361.5 288.5,357.5C 290.833,357.5 293.167,357.5 295.5,357.5 Z"/></g>
<g><path style="opacity:0.787" fill="#292827" d="M 165.5,403.5 C 166.5,403.5 167.5,403.5 168.5,403.5C 168.176,407.555 168.509,411.555 169.5,415.5C 170.5,416.833 171.5,416.833 172.5,415.5C 173.491,411.555 173.824,407.555 173.5,403.5C 174.5,403.5 175.5,403.5 176.5,403.5C 176.666,408.179 176.499,412.845 176,417.5C 174.513,418.253 174.346,419.086 175.5,420C 172.5,420.667 169.5,420.667 166.5,420C 167.654,419.086 167.487,418.253 166,417.5C 165.501,412.845 165.334,408.179 165.5,403.5 Z"/></g>
<g><path style="opacity:0.006" fill="#000000" d="M 169.5,403.5 C 170.643,406.976 170.81,410.642 170,414.5C 169.501,410.848 169.335,407.182 169.5,403.5 Z"/></g>
<g><path style="opacity:0.58" fill="#2b2929" d="M 229.5,403.5 C 231.167,403.5 232.833,403.5 234.5,403.5C 234.5,404.833 234.5,406.167 234.5,407.5C 232.833,407.5 231.167,407.5 229.5,407.5C 229.5,406.167 229.5,404.833 229.5,403.5 Z"/></g>
<g><path style="opacity:0.756" fill="#282725" d="M 240.5,403.5 C 241.833,403.5 243.167,403.5 244.5,403.5C 244.5,409.167 244.5,414.833 244.5,420.5C 240.861,420.89 237.695,419.89 235,417.5C 234.517,418.448 234.351,419.448 234.5,420.5C 232.833,420.5 231.167,420.5 229.5,420.5C 229.5,416.5 229.5,412.5 229.5,408.5C 231.167,408.5 232.833,408.5 234.5,408.5C 234.833,412.5 235.167,412.5 235.5,408.5C 236.552,408.649 237.552,408.483 238.5,408C 237.304,407.346 237.304,406.846 238.5,406.5C 239.192,407.025 239.692,407.692 240,408.5C 240.494,406.866 240.66,405.199 240.5,403.5 Z"/></g>
<g><path style="opacity:0.691" fill="#292827" d="M 282.5,403.5 C 285.5,403.5 288.5,403.5 291.5,403.5C 291.5,405.167 291.5,406.833 291.5,408.5C 289.801,408.34 288.134,408.506 286.5,409C 288.727,409.121 290.56,409.954 292,411.5C 292.5,409.667 293.667,408.5 295.5,408C 295.167,407.667 294.833,407.333 294.5,407C 296.167,406.333 297.833,406.333 299.5,407C 297.068,408.087 297.402,408.587 300.5,408.5C 301.577,412.557 301.577,416.391 300.5,420C 294.594,421.646 291.594,419.48 291.5,413.5C 289.833,413.5 288.167,413.5 286.5,413.5C 286.5,415.833 286.5,418.167 286.5,420.5C 285.167,420.5 283.833,420.5 282.5,420.5C 282.5,414.833 282.5,409.167 282.5,403.5 Z"/></g>
<g><path style="opacity:0.589" fill="#2a2928" d="M 340.5,403.5 C 341.833,403.5 343.167,403.5 344.5,403.5C 344.5,409.167 344.5,414.833 344.5,420.5C 343.167,420.5 341.833,420.5 340.5,420.5C 340.5,414.833 340.5,409.167 340.5,403.5 Z"/></g>
<g><path style="opacity:0.005" fill="#000000" d="M 178.5,407.5 C 179.251,406.427 180.251,406.26 181.5,407C 180.552,407.483 179.552,407.649 178.5,407.5 Z"/></g>
<g><path style="opacity:0.163" fill="#3a322f" d="M 193.5,408.5 C 193.167,408.5 192.833,408.5 192.5,408.5C 191.432,407.566 190.099,407.232 188.5,407.5C 188.5,406.167 188.5,404.833 188.5,403.5C 190.167,403.5 191.833,403.5 193.5,403.5C 193.5,405.167 193.5,406.833 193.5,408.5 Z"/></g>
<g><path style="opacity:0.006" fill="#000000" d="M 194.5,407.5 C 194.897,406.475 195.563,406.308 196.5,407C 195.906,407.464 195.239,407.631 194.5,407.5 Z"/></g>
<g><path style="opacity:0.707" fill="#282727" d="M 248.5,407.5 C 249.601,406.402 250.934,406.235 252.5,407C 252.167,407.333 251.833,407.667 251.5,408C 252.416,408.374 253.25,408.874 254,409.5C 254.212,412.758 254.712,415.924 255.5,419C 252.722,420.392 249.722,420.892 246.5,420.5C 247.02,416.347 247.02,412.347 246.5,408.5C 248.401,408.754 249.067,408.42 248.5,407.5 Z"/></g>
<g><path style="opacity:0.743" fill="#282827" d="M 182.5,406.5 C 183.552,406.351 184.552,406.517 185.5,407C 185.167,407.333 184.833,407.667 184.5,408C 185.849,408.772 186.682,409.939 187,411.5C 187.498,414.482 187.665,417.482 187.5,420.5C 186.167,420.5 184.833,420.5 183.5,420.5C 183.167,408.5 182.833,408.5 182.5,420.5C 180.856,420.714 179.356,420.38 178,419.5C 177.501,415.848 177.335,412.182 177.5,408.5C 179.781,408.923 181.448,408.256 182.5,406.5 Z"/></g>
<g><path style="opacity:0.716" fill="#292827" d="M 193.5,408.5 C 194.833,408.5 196.167,408.5 197.5,408.5C 197.833,413.833 198.167,413.833 198.5,408.5C 200.167,407.833 201.833,407.167 203.5,406.5C 203.351,407.552 203.517,408.552 204,409.5C 205.643,408.488 206.81,407.488 207.5,406.5C 208.371,407.737 209.871,409.07 212,410.5C 214.725,408.242 217.725,407.909 221,409.5C 222.643,408.488 223.81,407.488 224.5,406.5C 225.006,407.824 226.339,408.491 228.5,408.5C 228.255,412.079 227.922,415.746 227.5,419.5C 225.235,420.647 222.902,420.814 220.5,420C 221.424,419.15 221.424,418.15 220.5,417C 220.905,416.055 221.572,415.388 222.5,415C 221.033,413.902 220.199,412.402 220,410.5C 217.921,413.483 217.087,416.817 217.5,420.5C 215.173,420.753 213.173,420.086 211.5,418.5C 209.401,420.534 207.068,420.868 204.5,419.5C 203.391,417.615 202.557,415.615 202,413.5C 202.523,418.502 200.356,420.835 195.5,420.5C 194.514,416.557 193.848,412.557 193.5,408.5 Z"/></g>
<g><path style="opacity:0.006" fill="#000000" d="M 217.5,407.5 C 217.897,406.475 218.563,406.308 219.5,407C 218.906,407.464 218.239,407.631 217.5,407.5 Z"/></g>
<g><path style="opacity:0.005" fill="#000000" d="M 213.5,407.5 C 214.251,406.427 215.251,406.26 216.5,407C 215.552,407.483 214.552,407.649 213.5,407.5 Z"/></g>
<g><path style="opacity:0.716" fill="#2a2928" d="M 261.5,403.5 C 263.124,403.36 264.29,404.027 265,405.5C 265.333,404.833 265.667,404.167 266,403.5C 266.333,405.833 266.667,408.167 267,410.5C 267.772,409.151 268.939,408.318 270.5,408C 270.167,407.667 269.833,407.333 269.5,407C 270.833,406.333 272.167,406.333 273.5,407C 272.346,407.914 272.513,408.747 274,409.5C 274.333,409.167 274.667,408.833 275,408.5C 277.715,414.196 276.215,418.196 270.5,420.5C 269.006,420.291 267.839,419.624 267,418.5C 266.667,419.167 266.333,419.833 266,420.5C 263.031,420.481 259.865,420.314 256.5,420C 257.654,419.086 257.487,418.253 256,417.5C 255.333,415.167 255.333,412.833 256,410.5C 257.975,409.25 259.141,407.917 259.5,406.5C 260.192,407.025 260.692,407.692 261,408.5C 261.494,406.866 261.66,405.199 261.5,403.5 Z M 264.5,406.5 C 265.466,408.792 266.133,411.292 266.5,414C 266.491,415.404 265.991,416.57 265,417.5C 264.501,413.848 264.335,410.182 264.5,406.5 Z M 260.5,411.5 C 261.613,412.946 261.78,414.613 261,416.5C 259.212,414.977 259.045,413.31 260.5,411.5 Z"/></g>
<g><path style="opacity:0.716" fill="#2c2b2a" d="M 323.5,407.5 C 326.166,407.98 328.666,408.98 331,410.5C 332.028,408.639 333.528,407.305 335.5,406.5C 336.006,407.824 337.339,408.491 339.5,408.5C 339.5,412.5 339.5,416.5 339.5,420.5C 336.753,420.813 334.086,420.48 331.5,419.5C 330.167,417.5 330.167,415.5 331.5,413.5C 330.311,412.571 328.978,412.238 327.5,412.5C 327.5,415.167 327.5,417.833 327.5,420.5C 325.234,420.859 323.401,420.192 322,418.5C 320.164,420.604 317.998,420.938 315.5,419.5C 314.273,418.41 313.44,417.076 313,415.5C 312.506,417.134 312.34,418.801 312.5,420.5C 308.491,420.961 304.824,420.128 301.5,418C 302.435,415.619 302.768,413.119 302.5,410.5C 303.801,409.36 304.968,408.027 306,406.5C 306.333,406.833 306.667,407.167 307,407.5C 307.49,406.207 307.657,404.873 307.5,403.5C 309.167,403.5 310.833,403.5 312.5,403.5C 312.335,406.518 312.502,409.518 313,412.5C 313.333,411.167 313.667,409.833 314,408.5C 314.914,409.654 315.747,409.487 316.5,408C 316.167,407.667 315.833,407.333 315.5,407C 318.512,406.425 320.679,407.591 322,410.5C 322.232,409.263 322.732,408.263 323.5,407.5 Z M 306.5,412.5 C 308.97,413.36 309.137,414.694 307,416.5C 306.51,415.207 306.343,413.873 306.5,412.5 Z"/></g>
<g><path style="opacity:0.005" fill="#000000" d="M 327.5,407.5 C 328.251,406.427 329.251,406.26 330.5,407C 329.552,407.483 328.552,407.649 327.5,407.5 Z"/></g>
<g><path style="opacity:0.005" fill="#000000" d="M 323.5,407.5 C 324.251,406.427 325.251,406.26 326.5,407C 325.552,407.483 324.552,407.649 323.5,407.5 Z"/></g>
<g><path style="opacity:0.004" fill="#000000" d="M 302.5,410.5 C 301.833,409.167 301.833,409.167 302.5,410.5 Z"/></g>
<g><path style="opacity:0.512" fill="#252424" d="M 192.5,408.5 C 192.5,412.5 192.5,416.5 192.5,420.5C 191.167,420.5 189.833,420.5 188.5,420.5C 188.5,416.5 188.5,412.5 188.5,408.5C 189.833,408.5 191.167,408.5 192.5,408.5 Z"/></g>
<g><path style="opacity:0.008" fill="#000000" d="M 235.5,419.5 C 236.833,420.167 236.833,420.167 235.5,419.5 Z"/></g>
<g><path style="opacity:0.008" fill="#000000" d="M 274.5,419.5 C 275.833,420.167 275.833,420.167 274.5,419.5 Z"/></g>
<g><path style="opacity:0.004" fill="#000000" d="M 313.5,419.5 C 314.833,420.167 314.833,420.167 313.5,419.5 Z"/></g>
<g><path style="opacity:0.004" fill="#000000" d="M 226.5,425.5 C 226.897,424.475 227.563,424.308 228.5,425C 227.906,425.464 227.239,425.631 226.5,425.5 Z"/></g>
<g><path style="opacity:0.732" fill="#2a2928" d="M 224.5,426.5 C 227.394,426.042 229.894,426.709 232,428.5C 232.333,428.167 232.667,427.833 233,427.5C 233.483,428.448 233.649,429.448 233.5,430.5C 235.5,430.5 237.5,430.5 239.5,430.5C 239.833,442.5 240.167,442.5 240.5,430.5C 241.833,430.5 243.167,430.5 244.5,430.5C 244.5,434.167 244.5,437.833 244.5,441.5C 241.482,441.665 238.482,441.498 235.5,441C 234.258,437.643 233.424,437.81 233,441.5C 229.699,441.501 226.199,441.334 222.5,441C 219.561,435.608 220.228,430.775 224.5,426.5 Z M 225.5,430.5 C 226.833,430.5 228.167,430.5 229.5,430.5C 229.664,433.187 229.497,435.854 229,438.5C 228,439.833 227,439.833 226,438.5C 225.503,435.854 225.336,433.187 225.5,430.5 Z"/></g>
<g><path style="opacity:0.743" fill="#2b2a29" d="M 199.5,426.5 C 201.167,426.5 202.833,426.5 204.5,426.5C 204.5,431.5 204.5,436.5 204.5,441.5C 201.167,441.5 197.833,441.5 194.5,441.5C 194.26,438.421 194.593,435.421 195.5,432.5C 196.912,431.194 198.579,430.36 200.5,430C 199.663,428.989 199.33,427.822 199.5,426.5 Z M 198.5,434.5 C 199.289,434.783 199.956,435.283 200.5,436C 199.888,437.303 199.554,438.47 199.5,439.5C 198.548,437.955 198.215,436.288 198.5,434.5 Z"/></g>
<g><path style="opacity:0.691" fill="#2c2a29" d="M 304.5,434.5 C 303.167,436.167 303.167,437.833 304.5,439.5C 303.082,441.308 301.082,441.975 298.5,441.5C 298.806,438.615 298.473,435.948 297.5,433.5C 297.735,429.676 299.735,427.676 303.5,427.5C 303.993,429.806 304.326,432.139 304.5,434.5 Z"/></g>
<g><path style="opacity:0.016" fill="#391111" d="M 268.5,426.5 C 269.65,431.316 269.816,436.316 269,441.5C 268.501,436.511 268.334,431.511 268.5,426.5 Z"/></g>
<g><path style="opacity:0.656" fill="#2d2c2b" d="M 207.5,430.5 C 210.596,429.907 212.929,430.907 214.5,433.5C 215.48,436.086 215.813,438.753 215.5,441.5C 205.732,442.961 203.066,439.294 207.5,430.5 Z"/></g>
<g><path style="opacity:0.518" fill="#282726" d="M 297.5,433.5 C 297.5,436.167 297.5,438.833 297.5,441.5C 294.5,441.5 291.5,441.5 288.5,441.5C 288.664,438.813 288.497,436.146 288,433.5C 287.667,435.167 287.333,436.833 287,438.5C 286.667,437.5 286.333,436.5 286,435.5C 285.505,437.473 285.338,439.473 285.5,441.5C 283.833,441.5 282.167,441.5 280.5,441.5C 280.664,438.813 280.497,436.146 280,433.5C 279.517,434.448 279.351,435.448 279.5,436.5C 277.5,436.5 275.5,436.5 273.5,436.5C 273.5,438.167 273.5,439.833 273.5,441.5C 272.5,441.5 271.5,441.5 270.5,441.5C 270.5,436.5 270.5,431.5 270.5,426.5C 275.487,425.349 278.987,427.016 281,431.5C 282.813,431.407 284.646,431.073 286.5,430.5C 287.647,430.818 288.481,431.484 289,432.5C 292.117,429.815 294.95,430.148 297.5,433.5 Z M 273.5,430.5 C 275.973,430.947 276.14,431.947 274,433.5C 273.517,432.552 273.351,431.552 273.5,430.5 Z M 291.5,433.5 C 293.337,433.639 293.67,434.306 292.5,435.5C 291.702,435.043 291.369,434.376 291.5,433.5 Z"/></g>
<g><path style="opacity:0.688" fill="#2b2a29" d="M 304.5,439.5 C 304.5,437.833 304.5,436.167 304.5,434.5C 305.117,434.611 305.617,434.944 306,435.5C 306.386,431.392 308.553,429.892 312.5,431C 315.929,433.893 316.929,437.393 315.5,441.5C 312.5,441.5 309.5,441.5 306.5,441.5C 306.869,439.007 306.203,438.34 304.5,439.5 Z M 309.5,433.5 C 311.423,435.201 311.757,437.201 310.5,439.5C 309.534,437.604 309.201,435.604 309.5,433.5 Z"/></g>
<g><path style="opacity:0.601" fill="#2d2928" d="M 246.5,430.5 C 248.477,431.149 250.31,431.149 252,430.5C 253.261,430.759 254.261,431.426 255,432.5C 259.934,429.374 262.767,430.874 263.5,437C 263.355,438.226 263.022,439.393 262.5,440.5C 259.572,441.484 256.572,441.817 253.5,441.5C 253.167,439.5 252.833,437.5 252.5,435.5C 251.5,435.5 250.5,435.5 249.5,435.5C 249.5,437.5 249.5,439.5 249.5,441.5C 248.5,441.5 247.5,441.5 246.5,441.5C 246.5,437.833 246.5,434.167 246.5,430.5 Z"/></g>
<g><path style="opacity:0.01" fill="#000000" d="M 250.5,436.5 C 251.613,437.946 251.78,439.613 251,441.5C 250.506,439.866 250.34,438.199 250.5,436.5 Z"/></g>
<g><path style="opacity:0.008" fill="#141414" d="M 274.5,438.5 C 275.251,437.427 276.251,437.26 277.5,438C 276.552,438.483 275.552,438.649 274.5,438.5 Z"/></g>
</svg>
